<svg width="32" height="28" viewBox="0 0 32 28" fill="none" xmlns="http://www.w3.org/2000/svg">
<path d="M5.83331 24.5V8.16667H9.91665V7.58333C9.91665 6.44933 10.3137 5.48528 11.1078 4.69117C11.9019 3.89706 12.866 3.5 14 3.5C15.134 3.5 16.098 3.89706 16.8921 4.69117C17.6863 5.48528 18.0833 6.44933 18.0833 7.58333V8.16667H22.1666V24.5H5.83331ZM6.99998 23.3333H21V9.33333H18.0833V12.8333H16.9166V9.33333H11.0833V12.8333H9.91665V9.33333H6.99998V23.3333ZM11.0833 8.16667H16.9166V7.58333C16.9166 6.762 16.6359 6.07056 16.0743 5.509C15.5128 4.94744 14.8213 4.66667 14 4.66667C13.1786 4.66667 12.4872 4.94744 11.9256 5.509C11.3641 6.07056 11.0833 6.762 11.0833 7.58333V8.16667Z" fill="#15242A"/>
<circle cx="22" cy="9" r="9" fill="#67B0D1"/>
<path d="M25.0102 9.484C25.0102 10.188 24.8782 10.816 24.6142 11.368C24.3582 11.912 24.0022 12.34 23.5462 12.652C23.0902 12.964 22.5742 13.12 21.9982 13.12C21.4222 13.12 20.9062 12.964 20.4502 12.652C20.0022 12.34 19.6462 11.912 19.3822 11.368C19.1182 10.816 18.9862 10.188 18.9862 9.484C18.9862 8.78 19.1182 8.156 19.3822 7.612C19.6462 7.06 20.0022 6.628 20.4502 6.316C20.9062 5.996 21.4222 5.836 21.9982 5.836C22.5742 5.836 23.0902 5.996 23.5462 6.316C24.0022 6.628 24.3582 7.06 24.6142 7.612C24.8782 8.156 25.0102 8.78 25.0102 9.484ZM24.1822 9.484C24.1822 8.916 24.0902 8.416 23.9062 7.984C23.7222 7.552 23.4662 7.216 23.1382 6.976C22.8102 6.728 22.4302 6.604 21.9982 6.604C21.5662 6.604 21.1862 6.728 20.8582 6.976C20.5302 7.216 20.2702 7.552 20.0782 7.984C19.8942 8.416 19.8022 8.916 19.8022 9.484C19.8022 10.052 19.8942 10.552 20.0782 10.984C20.2702 11.416 20.5302 11.752 20.8582 11.992C21.1862 12.232 21.5662 12.352 21.9982 12.352C22.4302 12.352 22.8102 12.232 23.1382 11.992C23.4662 11.744 23.7222 11.408 23.9062 10.984C24.0902 10.552 24.1822 10.052 24.1822 9.484Z" fill="white"/>
</svg>
