<svg width="20" height="20" viewBox="0 0 20 20" fill="none" xmlns="http://www.w3.org/2000/svg">
<g clip-path="url(#clip0_306_335)">
<path d="M9.75 2.46387C7.84059 2.52715 6.02228 3.3117 4.66699 4.66699C3.25266 6.08133 2.45801 7.99983 2.45801 10C2.45801 12.0002 3.25266 13.9187 4.66699 15.333C6.08133 16.7473 7.99983 17.542 10 17.542C12.0002 17.542 13.9187 16.7473 15.333 15.333C16.6883 13.9777 17.4719 12.1594 17.5352 10.25H19.1191C18.9866 15.1738 14.9558 19.125 10 19.125C4.96057 19.125 0.875 15.0394 0.875 10C0.875 5.04419 4.82617 1.01335 9.75 0.880859V2.46387ZM10.583 6.08301V9.75879L13.5684 12.7441L12.7441 13.5684L9.41699 10.2412V6.08301H10.583ZM18.3174 6.24316C18.5625 6.78565 18.7532 7.35078 18.8877 7.93066L17.3369 8.24512C17.2289 7.79088 17.0768 7.35439 16.8906 6.93652L18.3174 6.24316ZM15.6729 2.85352C16.2178 3.28694 16.7116 3.7811 17.1445 4.32617L15.8789 5.27734C15.5356 4.85095 15.1475 4.46288 14.7207 4.12012L15.6729 2.85352ZM12.0674 1.11133C12.6473 1.24581 13.2124 1.43752 13.7549 1.68262L13.0615 3.11035C12.639 2.92224 12.2008 2.77326 11.751 2.66602L12.0674 1.11133Z" fill="#15242A" stroke="#F8F9FA" stroke-width="0.5"/>
</g>
<defs>
<clipPath id="clip0_306_335">
<rect width="20" height="20" fill="white"/>
</clipPath>
</defs>
</svg>
