<svg width="17" height="17" viewBox="0 0 17 17" fill="none" xmlns="http://www.w3.org/2000/svg">
<path fill-rule="evenodd" clip-rule="evenodd" d="M0 8.5C-1.66332e-08 9.61624 0.219859 10.7215 0.647024 11.7528C1.07419 12.7841 1.70029 13.7211 2.48959 14.5104C3.27889 15.2997 4.21592 15.9258 5.24719 16.353C6.27846 16.7801 7.38376 17 8.5 17C9.61624 17 10.7215 16.7801 11.7528 16.353C12.7841 15.9258 13.7211 15.2997 14.5104 14.5104C15.2997 13.7211 15.9258 12.7841 16.353 11.7528C16.7801 10.7215 17 9.61624 17 8.5C17 6.24566 16.1045 4.08365 14.5104 2.48959C12.9163 0.895533 10.7543 0 8.5 0C6.24566 0 4.08365 0.895533 2.48959 2.48959C0.895533 4.08365 3.35923e-08 6.24566 0 8.5ZM16 8.5C16 10.4891 15.2098 12.3968 13.8033 13.8033C12.3968 15.2098 10.4891 16 8.5 16C6.51088 16 4.60322 15.2098 3.1967 13.8033C1.79018 12.3968 1 10.4891 1 8.5C1 6.51088 1.79018 4.60322 3.1967 3.1967C4.60322 1.79018 6.51088 1 8.5 1C10.4891 1 12.3968 1.79018 13.8033 3.1967C15.2098 4.60322 16 6.51088 16 8.5Z" fill="#15242A"/>
<path fill-rule="evenodd" clip-rule="evenodd" d="M5 8.5C5 12.896 6.442 16.5 8.5 16.5C10.558 16.5 12 12.896 12 8.5C12 4.104 10.558 0.5 8.5 0.5C6.442 0.5 5 4.104 5 8.5ZM11 8.5C11 12.389 9.755 15.5 8.5 15.5C7.245 15.5 6 12.389 6 8.5C6 4.611 7.245 1.5 8.5 1.5C9.755 1.5 11 4.611 11 8.5Z" fill="#15242A"/>
<path d="M2.235 3.81195L2.905 3.06995C3.01167 3.16595 3.126 3.25961 3.248 3.35095C4.566 4.33895 6.646 4.94095 8.913 4.94095C10.846 4.94095 12.65 4.50395 13.968 3.75095C14.2716 3.57908 14.5586 3.37921 14.825 3.15395L15.475 3.91395C15.1763 4.16928 14.8397 4.40395 14.465 4.61795C12.988 5.46295 11.013 5.94095 8.913 5.94095C6.443 5.94095 4.151 5.27795 2.648 4.15095C2.50535 4.04381 2.36754 3.93136 2.235 3.81195ZM2.235 13.1999L2.905 13.9399C3.01167 13.8433 3.126 13.7499 3.248 13.6599C4.566 12.6719 6.646 12.0699 8.913 12.0699C10.846 12.0699 12.65 12.5059 13.968 13.2599C14.2893 13.4446 14.575 13.6433 14.825 13.8559L15.475 13.0959C15.161 12.8303 14.8229 12.5946 14.465 12.3919C12.988 11.5479 11.013 11.0699 8.913 11.0699C6.443 11.0699 4.151 11.7329 2.648 12.8589C2.50133 12.9689 2.36367 13.0833 2.235 13.1999ZM0.5 8.99995V7.99995H16.5V8.99995H0.5Z" fill="#15242A"/>
</svg>
