<svg width="20" height="17" viewBox="0 0 20 17" fill="none" xmlns="http://www.w3.org/2000/svg">
<path d="M9.52 16.632L9.184 16.352C1.96 10.472 0 8.4 0 5.04C0 2.24 2.24 0 5.04 0C7.336 0 8.624 1.288 9.52 2.296C10.416 1.288 11.704 0 14 0C16.8 0 19.04 2.24 19.04 5.04C19.04 8.4 17.08 10.472 9.856 16.352L9.52 16.632ZM5.04 1.12C2.856 1.12 1.12 2.856 1.12 5.04C1.12 7.896 2.912 9.8 9.52 15.176C16.128 9.8 17.92 7.896 17.92 5.04C17.92 2.856 16.184 1.12 14 1.12C12.04 1.12 10.976 2.296 10.136 3.248L9.52 3.976L8.904 3.248C8.064 2.296 7 1.12 5.04 1.12Z" fill="#15242A"/>
</svg>
