<svg width="14" height="12" viewBox="0 0 14 12" fill="none" xmlns="http://www.w3.org/2000/svg">
<path d="M10 0.0498047C11.9723 0.0498047 13.5496 1.62741 13.5498 3.59961C13.5498 4.78606 13.2053 5.74532 12.2168 6.93262C11.2254 8.12323 9.58952 9.541 7.00879 11.6416H7.00781L6.7998 11.8145L6.5918 11.6416C4.01105 9.54099 2.37514 8.12324 1.38379 6.93262C0.395101 5.74518 0.0498047 4.78615 0.0498047 3.59961C0.050013 1.62754 1.62754 0.050013 3.59961 0.0498047C5.2169 0.0498047 6.12474 0.955173 6.7627 1.67285L6.7998 1.71484L6.83691 1.67285C7.47488 0.955145 8.38258 0.0498047 10 0.0498047ZM10 0.75C8.57576 0.75 7.80212 1.60714 7.20215 2.28711V2.28809L6.7998 2.76172L6.39844 2.28809L6.39746 2.28711L6.16309 2.02539C5.5937 1.40593 4.8456 0.75 3.59961 0.75C2.01231 0.750207 0.750207 2.01231 0.75 3.59961C0.75 4.6339 1.0763 5.4952 1.99219 6.57715C2.90571 7.65629 4.40928 8.9595 6.76855 10.8789L6.7998 10.9043L6.83203 10.8789C9.19124 8.95955 10.6949 7.65627 11.6084 6.57715C12.5241 5.49529 12.8496 4.63384 12.8496 3.59961C12.8494 2.01218 11.5875 0.75 10 0.75Z" fill="#15242A" stroke="#F8F9FA" stroke-width="0.1"/>
</svg>
