<svg width="22" height="19" viewBox="0 0 22 19" fill="none" xmlns="http://www.w3.org/2000/svg">
<path d="M10.8582 0L21.7163 8.44433L21.3582 8.90516L21 9.366L19.6082 8.28333V18.2385C19.0248 18.2385 19.1796 18.2385 19.0248 18.2385C18.8701 18.2385 19.0248 18.2385 18.4415 18.2385V7.37567L10.8582 1.477L3.27483 7.37683V18.2385C3.27483 18.2385 2.84621 18.2385 2.6915 18.2385C2.53679 18.2385 2.10817 18.2385 2.10817 18.2385V8.28333L0.716333 9.366C0.358174 8.90516 0.453166 9.02738 0.358174 8.90516C0.263186 8.78294 0.358175 8.90516 0 8.44433L2.10817 6.80517V3.65517C2.10817 3.34575 2.10817 2.48849 2.10817 2.48849C2.10817 2.48849 2.96541 2.4885 3.27483 2.4885H4.4415C4.75092 2.4885 5.60817 2.48849 5.60817 2.48849C5.60817 2.48849 5.60817 3.34575 5.60817 3.65517V4.08333L10.8582 0ZM4.4415 4.88017V3.65517H3.27483V5.75517L4.4415 4.88017Z" fill="#15242A"/>
</svg>
