<svg width="20" height="20" viewBox="0 0 20 20" fill="none" xmlns="http://www.w3.org/2000/svg">
<path d="M10.5752 8.7998V13.7998H12.4502V14.9502H7.5498V13.7998H9.4248V9.9502H8.1748V8.7998H10.5752ZM10 5.0498C10.2354 5.0498 10.4615 5.14313 10.6279 5.30957C10.7944 5.47601 10.8877 5.70212 10.8877 5.9375C10.8877 6.11299 10.8358 6.28474 10.7383 6.43066C10.6408 6.5766 10.502 6.69064 10.3398 6.75781C10.1777 6.82496 9.99924 6.8418 9.82715 6.80762C9.65499 6.77337 9.49619 6.68955 9.37207 6.56543C9.24795 6.44131 9.16413 6.28251 9.12988 6.11035C9.0957 5.93826 9.11254 5.75976 9.17969 5.59766C9.24686 5.43551 9.3609 5.29673 9.50684 5.19922C9.6162 5.12617 9.74012 5.0788 9.86914 5.05957L10 5.0498Z" fill="#15242A" stroke="#F8F9FA" stroke-width="0.1"/>
<path d="M8.30273 1.4668C9.99023 1.13115 11.7395 1.30356 13.3291 1.96191C14.9188 2.6204 16.2774 3.73628 17.2334 5.16699C18.1893 6.59767 18.7002 8.27936 18.7002 10C18.7002 12.3074 17.7829 14.5198 16.1514 16.1514C14.5198 17.7829 12.3074 18.7002 10 18.7002C8.27936 18.7002 6.59767 18.1893 5.16699 17.2334C3.73628 16.2774 2.6204 14.9188 1.96191 13.3291C1.30356 11.7395 1.13115 9.99023 1.4668 8.30273C1.80249 6.6151 2.63192 5.06535 3.84863 3.84863C5.06535 2.63192 6.6151 1.80249 8.30273 1.4668ZM10 2.4502C8.50677 2.4502 7.04725 2.89307 5.80566 3.72266C4.56414 4.55221 3.59587 5.73087 3.02441 7.11035C2.45302 8.48983 2.3035 10.0082 2.59473 11.4727C2.88604 12.9372 3.60525 14.283 4.66113 15.3389C5.71702 16.3948 7.06279 17.114 8.52734 17.4053C9.9918 17.6965 11.5102 17.547 12.8896 16.9756C14.2691 16.4041 15.4478 15.4359 16.2773 14.1943C17.1069 12.9528 17.5498 11.4932 17.5498 10C17.5498 7.99762 16.7548 6.07703 15.3389 4.66113C13.923 3.24524 12.0024 2.4502 10 2.4502Z" fill="#15242A" stroke="#F8F9FA" stroke-width="0.1"/>
</svg>
