<svg width="18" height="18" viewBox="0 0 18 18" fill="none" xmlns="http://www.w3.org/2000/svg">
<path d="M7.05273 0.216797C8.74023 -0.118848 10.4895 0.0535563 12.0791 0.711914C13.6688 1.3704 15.0274 2.48628 15.9834 3.91699C16.9393 5.34767 17.4502 7.02936 17.4502 8.75C17.4502 11.0574 16.5329 13.2698 14.9014 14.9014C13.2698 16.5329 11.0574 17.4502 8.75 17.4502C7.02936 17.4502 5.34767 16.9393 3.91699 15.9834C2.48628 15.0274 1.3704 13.6688 0.711914 12.0791C0.0535563 10.4895 -0.118848 8.74023 0.216797 7.05273C0.552488 5.3651 1.38192 3.81535 2.59863 2.59863C3.81535 1.38192 5.3651 0.552488 7.05273 0.216797ZM8.75 1.2002C7.25677 1.2002 5.79725 1.64307 4.55566 2.47266C3.31414 3.30221 2.34587 4.48087 1.77441 5.86035C1.20302 7.23983 1.0535 8.7582 1.34473 10.2227C1.63604 11.6872 2.35525 13.033 3.41113 14.0889C4.46702 15.1448 5.81279 15.864 7.27734 16.1553C8.7418 16.4465 10.2602 16.297 11.6396 15.7256C13.0191 15.1541 14.1978 14.1859 15.0273 12.9443C15.8569 11.7028 16.2998 10.2432 16.2998 8.75C16.2998 6.74762 15.5048 4.82703 14.0889 3.41113C12.673 1.99524 10.7524 1.2002 8.75 1.2002Z" fill="#15242A" stroke="#F8F9FA" stroke-width="0.1"/>
</svg>
