<svg width="12" height="17" viewBox="0 0 12 17" fill="none" xmlns="http://www.w3.org/2000/svg">
<path d="M5.83301 0.200195C7.32691 0.200195 8.75998 0.793358 9.81641 1.84961C10.8728 2.90599 11.4667 4.33907 11.4668 5.83301C11.4668 6.88629 11.114 8.0808 10.5723 9.29004C10.0317 10.4965 9.30929 11.7033 8.58398 12.7783C7.8591 13.8527 7.13411 14.7923 6.58984 15.4629C6.31784 15.798 6.091 16.0662 5.93262 16.25C5.89598 16.2925 5.86206 16.33 5.83301 16.3633C5.80403 16.33 5.77088 16.2924 5.73438 16.25C5.57599 16.0662 5.34921 15.7981 5.07715 15.4629C4.53287 14.7922 3.80698 13.8528 3.08203 12.7783C2.35676 11.7033 1.63423 10.4965 1.09375 9.29004C0.552017 8.08081 0.200195 6.88628 0.200195 5.83301C0.200281 4.33907 0.793231 2.90599 1.84961 1.84961C2.90599 0.793231 4.33907 0.200282 5.83301 0.200195ZM5.83301 1.4668C4.67501 1.46688 3.56493 1.92726 2.74609 2.74609C1.92726 3.56493 1.46688 4.67501 1.4668 5.83301C1.4668 6.26995 1.47025 6.92293 2.00391 8.17285C2.53356 9.4133 3.58511 11.2432 5.67285 14.0449L5.83301 14.2598L5.99414 14.0449C8.08188 11.2432 9.13343 9.41329 9.66309 8.17285C10.1967 6.923 10.2002 6.26993 10.2002 5.83301C10.2001 4.67509 9.73963 3.56491 8.9209 2.74609C8.10199 1.92718 6.99112 1.4668 5.83301 1.4668ZM5.83301 3.9502C6.3325 3.9502 6.81185 4.14876 7.16504 4.50195C7.51805 4.85505 7.71671 5.33371 7.7168 5.83301C7.7168 6.08023 7.66782 6.32529 7.57324 6.55371C7.4786 6.78221 7.33992 6.99016 7.16504 7.16504C6.99016 7.33992 6.78221 7.4786 6.55371 7.57324C6.32529 7.66781 6.08023 7.7168 5.83301 7.7168C5.33371 7.71671 4.85505 7.51805 4.50195 7.16504C4.14876 6.81185 3.9502 6.3325 3.9502 5.83301C3.95028 5.33363 4.14884 4.85507 4.50195 4.50195C4.85507 4.14884 5.33363 3.95028 5.83301 3.9502Z" fill="#15242A" stroke="#F8F9FA" stroke-width="0.4"/>
</svg>
