<svg width="32" height="32" viewBox="0 0 32 32" fill="none" xmlns="http://www.w3.org/2000/svg">
<path d="M14.7334 16.0187H15.7214C15.7721 15.7334 15.6814 15.4894 15.3654 15.4894C15.0494 15.4894 14.8254 15.652 14.7334 16.0187ZM9.16407 16.548L9.11474 16.54C8.96807 16.5134 8.70941 16.4654 8.48274 16.62C8.22807 16.7934 8.15607 17.0974 8.42141 17.2C8.67607 17.2974 9.05207 17.1294 9.10407 16.864L9.16407 16.548ZM27.2974 16.456C27.3801 16.192 27.3347 15.8614 27.2467 15.744C27.0027 15.4187 26.4414 15.676 26.2694 16.3147C26.1574 16.732 26.4027 17.048 26.6774 17.048C26.9721 17.048 27.1547 16.8134 27.2974 16.456ZM22.6041 16.548L22.5547 16.54C22.4081 16.5134 22.1481 16.4654 21.9227 16.62C21.6681 16.7934 21.5961 17.0974 21.8614 17.2C22.1161 17.2974 22.4921 17.1294 22.5427 16.864L22.6041 16.548Z" fill="#2F4D5A"/>
<path d="M21.4413 8.10671C23.5347 8.10671 25.5424 8.93833 27.0227 10.4186C28.503 11.8989 29.3346 13.9066 29.3346 16C29.3346 18.0935 28.503 20.1012 27.0227 21.5815C25.5424 23.0618 23.5347 23.8934 21.4413 23.8934C19.6286 23.8974 17.8709 23.2709 16.4693 22.1214C17.5221 21.1103 18.298 19.846 18.7226 18.4494H18.0666C17.6582 19.6928 16.9461 20.8147 15.9946 21.7134C15.0491 20.8142 14.3421 19.6939 13.9373 18.4534H13.2813C13.7006 19.8441 14.4679 21.1048 15.5106 22.116C14.1147 23.2606 12.3665 23.8884 10.5613 23.8934C8.46786 23.8934 6.46016 23.0618 4.97987 21.5815C3.49959 20.1012 2.66797 18.0935 2.66797 16C2.66797 13.9066 3.49959 11.8989 4.97987 10.4186C6.46016 8.93833 8.46786 8.10671 10.5613 8.10671C12.4413 8.10671 14.1546 8.78671 15.5106 9.88404C14.4679 10.8953 13.7006 12.156 13.2813 13.5467H13.9373C14.3421 12.3062 15.0491 11.1859 15.9946 10.2867C16.9461 11.1854 17.6582 12.3073 18.0666 13.5507H18.7226C18.298 12.1541 17.5221 10.8898 16.4693 9.87871C17.8713 8.72888 19.6295 8.10243 21.4426 8.10671M24.08 14.928L23.5346 17.848H24.3373L24.584 16.512C24.808 15.6827 25.1533 15.6854 25.356 15.6894H25.3866L25.6026 14.9294C25.2013 14.9294 24.964 15.072 24.8413 15.216L24.7693 14.928H24.08ZM13.768 14.1867H12.9733L12.424 16.956C12.2706 17.7494 12.872 17.8627 13.0546 17.8627C13.261 17.8694 13.4652 17.8196 13.6453 17.7187L13.696 17.1294C13.2386 17.2 13.2173 16.996 13.2586 16.772L13.4826 15.5907H13.8893L14.032 14.96H13.6053L13.768 14.1867ZM15.3253 14.92C14.0813 14.92 13.8906 16.116 13.8533 16.356L13.8493 16.3747C13.8186 16.5587 13.7986 17.852 15.1733 17.852C15.5093 17.8614 15.9973 17.8214 16.192 17.7187L16.3133 17.1187C16.0172 17.1674 15.7174 17.1911 15.4173 17.1894H15.3906C15.0733 17.1894 14.596 17.1907 14.684 16.5494H16.4146C16.508 16.08 16.7213 14.92 15.3253 14.92ZM12.404 15.02C12.0746 14.8947 11.808 14.9027 11.6706 14.9067H11.6133C11.4786 14.9067 10.5506 14.9067 10.4066 15.6C10.2946 16.14 10.492 16.3627 10.6813 16.4454C10.8813 16.532 11.024 16.6134 11.1453 16.6827C11.2075 16.72 11.2671 16.7529 11.324 16.7814C11.524 16.8814 11.488 17.2187 11.2213 17.2187L11.1253 17.2227C10.92 17.2347 10.5013 17.2574 10.1733 17.148L10.0613 17.748C10.428 17.8507 10.7226 17.8507 10.9973 17.8507H11.028C11.2746 17.8534 12.144 17.8614 12.2693 17.0254C12.3346 16.5987 12.148 16.404 11.9946 16.3134C11.8127 16.1945 11.6224 16.0889 11.4253 15.9974C11.2626 15.9254 11.14 15.6507 11.4346 15.5707C11.6186 15.5494 11.9946 15.5494 12.2186 15.6107L12.404 15.02ZM7.73064 14.3267H6.42664L5.45997 16.4654L5.30664 14.3267H4.03464L3.35197 17.8507H4.14664L4.63464 15.304L4.84797 17.8507H5.60264L6.71197 15.3654L6.24397 17.8507H7.06664L7.73064 14.3267ZM7.8213 15.6414L8.0133 15.6174C8.2533 15.5867 8.6013 15.5414 8.8093 15.5494L8.8893 15.5507C9.13863 15.556 9.3813 15.5614 9.29864 15.956C9.27108 15.9578 9.22664 15.9578 9.1653 15.956C8.74797 15.9427 7.63997 15.9094 7.4453 16.9747C7.3533 17.5747 7.87197 17.8814 8.27997 17.86C8.68664 17.84 8.79997 17.7894 8.9413 17.6867L9.04397 17.8507H9.78664L10.1026 16.2614C10.184 15.8654 10.316 14.908 8.98264 14.908L8.85463 14.912C8.63863 14.9174 8.37464 14.9254 7.94397 15.0094L7.8213 15.6414ZM20.2026 15C20.468 15 20.6093 15.02 20.8133 15.1414L21.3333 14.6227C21.1293 14.3987 20.8946 14.1787 20.244 14.1547C19.6933 14.1334 18.7506 14.5347 18.452 15.6307C18.044 17.1174 18.94 17.8507 19.7653 17.8507C20.2026 17.8507 20.468 17.7894 20.732 17.6667L20.4973 16.9547C19.684 17.2294 19.1026 16.812 19.236 15.9667C19.3466 15.252 19.9373 14.9987 20.2026 14.9987M27.472 15.1574C27.3653 15.0454 27.2426 14.9174 26.9626 14.9174H26.8906C26.4533 14.912 25.8226 14.9054 25.456 16.1587C25.1973 17.0427 25.7213 17.8494 26.2906 17.8494C26.556 17.8387 26.82 17.7267 26.984 17.6147L27.0853 17.8494H27.94L28.6333 14.1427H27.7973L27.584 15.2627C27.5446 15.2294 27.5072 15.1937 27.472 15.156M21.2613 15.6387L21.4533 15.6147C21.6933 15.584 22.04 15.5387 22.2493 15.5467L22.3293 15.548C22.5786 15.5534 22.8213 15.5587 22.7373 15.9534C22.7106 15.9552 22.6662 15.9552 22.604 15.9534C22.188 15.94 21.08 15.9067 20.884 16.972C20.7933 17.572 21.312 17.8787 21.72 17.8574C22.1266 17.8374 22.2386 17.7867 22.3813 17.684L22.484 17.848H23.2266L23.5426 16.2587C23.6226 15.8627 23.756 14.9054 22.4226 14.9054L22.2946 14.9094C22.0786 14.9147 21.8146 14.9227 21.384 15.0067L21.2613 15.6387ZM16.9773 14.956L16.4373 17.848H17.232L17.476 16.524C17.696 15.7107 18.044 15.716 18.244 15.7187H18.28L18.484 14.956C18.088 14.956 17.8533 15.0987 17.7306 15.2414L17.66 14.956H16.9773Z" fill="#2F4D5A"/>
</svg>
