<svg width="20" height="12" viewBox="0 0 20 12" fill="none" xmlns="http://www.w3.org/2000/svg">
<path d="M14.08 1.63758e-05C15.6501 1.63758e-05 17.1559 0.623729 18.2661 1.73394C19.3763 2.84416 20 4.34993 20 5.92002C20 7.4901 19.3763 8.99587 18.2661 10.1061C17.1559 11.2163 15.6501 11.84 14.08 11.84C12.7205 11.843 11.4022 11.3732 10.351 10.511C11.1406 9.75267 11.7225 8.80445 12.041 7.75702H11.549C11.2427 8.68958 10.7086 9.53099 9.995 10.205C9.28585 9.5306 8.7556 8.69037 8.452 7.76002H7.96C8.27445 8.80306 8.84995 9.74858 9.632 10.507C8.58503 11.3655 7.2739 11.8363 5.92 11.84C4.34992 11.84 2.84414 11.2163 1.73393 10.1061C0.623713 8.99587 0 7.4901 0 5.92002C0 4.34993 0.623713 2.84416 1.73393 1.73394C2.84414 0.623729 4.34992 1.63758e-05 5.92 1.63758e-05C7.33 1.63758e-05 8.615 0.510017 9.632 1.33302C8.84995 2.09145 8.27445 3.03697 7.96 4.08002H8.452C8.7556 3.14966 9.28585 2.30943 9.995 1.63502C10.7086 2.30904 11.2427 3.15045 11.549 4.08302H12.041C11.7225 3.03558 11.1406 2.08736 10.351 1.32902C11.4025 0.466641 12.7211 -0.00319716 14.081 1.63758e-05M16.059 5.11602L15.65 7.30602H16.252L16.437 6.30402C16.605 5.68202 16.864 5.68402 17.016 5.68702H17.039L17.201 5.11702C16.9 5.11702 16.722 5.22402 16.63 5.33202L16.576 5.11602H16.059ZM8.325 4.56002H7.729L7.317 6.63702C7.202 7.23202 7.653 7.31702 7.79 7.31702C7.94475 7.32203 8.09793 7.28469 8.233 7.20902L8.271 6.76702C7.928 6.82002 7.912 6.66702 7.943 6.49902L8.111 5.61302H8.416L8.523 5.14002H8.203L8.325 4.56002ZM9.493 5.11002C8.56 5.11002 8.417 6.00702 8.389 6.18702L8.386 6.20102C8.363 6.33902 8.348 7.30902 9.379 7.30902C9.631 7.31602 9.997 7.28602 10.143 7.20902L10.234 6.75902C10.0119 6.79556 9.78709 6.81329 9.562 6.81202H9.542C9.304 6.81202 8.946 6.81302 9.012 6.33202H10.31C10.38 5.98002 10.54 5.11002 9.493 5.11002ZM7.302 5.18502C7.055 5.09102 6.855 5.09702 6.752 5.10002H6.709C6.608 5.10002 5.912 5.10002 5.804 5.62002C5.72 6.02502 5.868 6.19202 6.01 6.25402C6.16 6.31902 6.267 6.38002 6.358 6.43202C6.40467 6.46002 6.44933 6.48468 6.492 6.50602C6.642 6.58102 6.615 6.83402 6.415 6.83402L6.343 6.83702C6.189 6.84602 5.875 6.86302 5.629 6.78102L5.545 7.23102C5.82 7.30802 6.041 7.30802 6.247 7.30802H6.27C6.455 7.31002 7.107 7.31602 7.201 6.68902C7.25 6.36902 7.11 6.22302 6.995 6.15502C6.85853 6.06588 6.71583 5.98668 6.568 5.91802C6.446 5.86402 6.354 5.65802 6.575 5.59802C6.713 5.58202 6.995 5.58202 7.163 5.62802L7.302 5.18502ZM3.797 4.66502H2.819L2.094 6.26902L1.979 4.66502H1.025L0.513 7.30802H1.109L1.475 5.39802L1.635 7.30802H2.201L3.033 5.44402L2.682 7.30802H3.299L3.797 4.66502ZM3.865 5.65102L4.009 5.63302C4.189 5.61002 4.45 5.57602 4.606 5.58202L4.666 5.58302C4.853 5.58702 5.035 5.59102 4.973 5.88702C4.95233 5.88835 4.919 5.88835 4.873 5.88702C4.56 5.87702 3.729 5.85202 3.583 6.65102C3.514 7.10102 3.903 7.33102 4.209 7.31502C4.514 7.30002 4.599 7.26202 4.705 7.18502L4.782 7.30802H5.339L5.576 6.11602C5.637 5.81902 5.736 5.10102 4.736 5.10102L4.64 5.10402C4.478 5.10802 4.28 5.11402 3.957 5.17702L3.865 5.65102ZM13.151 5.17002C13.35 5.17002 13.456 5.18502 13.609 5.27602L13.999 4.88702C13.846 4.71902 13.67 4.55402 13.182 4.53602C12.769 4.52002 12.062 4.82102 11.838 5.64302C11.532 6.75802 12.204 7.30802 12.823 7.30802C13.151 7.30802 13.35 7.26202 13.548 7.17002L13.372 6.63602C12.762 6.84202 12.326 6.52902 12.426 5.89502C12.509 5.35902 12.952 5.16902 13.151 5.16902M18.603 5.28802C18.523 5.20402 18.431 5.10802 18.221 5.10802H18.167C17.839 5.10402 17.366 5.09902 17.091 6.03902C16.897 6.70202 17.29 7.30702 17.717 7.30702C17.916 7.29902 18.114 7.21502 18.237 7.13102L18.313 7.30702H18.954L19.474 4.52702H18.847L18.687 5.36702C18.6575 5.342 18.6294 5.31529 18.603 5.28702M13.945 5.64902L14.089 5.63102C14.269 5.60802 14.529 5.57402 14.686 5.58002L14.746 5.58102C14.933 5.58502 15.115 5.58902 15.052 5.88502C15.032 5.88635 14.9987 5.88635 14.952 5.88502C14.64 5.87502 13.809 5.85002 13.662 6.64902C13.594 7.09902 13.983 7.32902 14.289 7.31302C14.594 7.29802 14.678 7.26002 14.785 7.18302L14.862 7.30602H15.419L15.656 6.11402C15.716 5.81702 15.816 5.09902 14.816 5.09902L14.72 5.10202C14.558 5.10602 14.36 5.11202 14.037 5.17502L13.945 5.64902ZM10.732 5.13702L10.327 7.30602H10.923L11.106 6.31302C11.271 5.70302 11.532 5.70702 11.682 5.70902H11.709L11.862 5.13702C11.565 5.13702 11.389 5.24402 11.297 5.35102L11.244 5.13702H10.732Z" fill="black"/>
</svg>
