<svg width="27" height="16" viewBox="0 0 27 16" fill="none" xmlns="http://www.w3.org/2000/svg">
<path d="M18.7733 2.18344e-05C20.8668 2.18344e-05 22.8745 0.831638 24.3548 2.31193C25.8351 3.79221 26.6667 5.79991 26.6667 7.89336C26.6667 9.9868 25.8351 11.9945 24.3548 13.4748C22.8745 14.9551 20.8668 15.7867 18.7733 15.7867C16.9606 15.7907 15.2029 15.1642 13.8013 14.0147C14.8541 13.0036 15.63 11.7393 16.0547 10.3427H15.3987C14.9903 11.5861 14.2781 12.708 13.3267 13.6067C12.3811 12.7075 11.6741 11.5872 11.2693 10.3467H10.6133C11.0326 11.7374 11.7999 12.9981 12.8427 14.0094C11.4467 15.1539 9.69853 15.7817 7.89333 15.7867C5.79989 15.7867 3.79219 14.9551 2.3119 13.4748C0.831617 11.9945 0 9.9868 0 7.89336C0 5.79991 0.831617 3.79221 2.3119 2.31193C3.79219 0.831638 5.79989 2.18344e-05 7.89333 2.18344e-05C9.77333 2.18344e-05 11.4867 0.680022 12.8427 1.77736C11.7999 2.78861 11.0326 4.04929 10.6133 5.44002H11.2693C11.6741 4.19955 12.3811 3.07925 13.3267 2.18002C14.2781 3.07872 14.9903 4.2006 15.3987 5.44402H16.0547C15.63 4.04744 14.8541 2.78315 13.8013 1.77202C15.2033 0.622189 16.9615 -0.00426288 18.7747 2.18344e-05M21.412 6.82136L20.8667 9.74135H21.6693L21.916 8.40536C22.14 7.57602 22.4853 7.57869 22.688 7.58269H22.7187L22.9347 6.82269C22.5333 6.82269 22.296 6.96535 22.1733 7.10935L22.1013 6.82136H21.412ZM11.1 6.08002H10.3053L9.756 8.84936C9.60267 9.64269 10.204 9.75602 10.3867 9.75602C10.593 9.76271 10.7972 9.71292 10.9773 9.61202L11.028 9.02269C10.5707 9.09336 10.5493 8.88936 10.5907 8.66536L10.8147 7.48402H11.2213L11.364 6.85336H10.9373L11.1 6.08002ZM12.6573 6.81335C11.4133 6.81335 11.2227 8.00936 11.1853 8.24936L11.1813 8.26802C11.1507 8.45202 11.1307 9.74536 12.5053 9.74536C12.8413 9.75469 13.3293 9.71469 13.524 9.61202L13.6453 9.01202C13.3492 9.06075 13.0495 9.08439 12.7493 9.08269H12.7227C12.4053 9.08269 11.928 9.08402 12.016 8.44269H13.7467C13.84 7.97335 14.0533 6.81335 12.6573 6.81335ZM9.736 6.91336C9.40667 6.78802 9.14 6.79602 9.00267 6.80002H8.94533C8.81067 6.80002 7.88267 6.80002 7.73867 7.49335C7.62667 8.03335 7.824 8.25602 8.01333 8.33869C8.21333 8.42535 8.356 8.50669 8.47733 8.57602C8.53956 8.61336 8.59911 8.64625 8.656 8.67469C8.856 8.77469 8.82 9.11202 8.55333 9.11202L8.45733 9.11602C8.252 9.12802 7.83333 9.15069 7.50533 9.04136L7.39333 9.64136C7.76 9.74402 8.05467 9.74402 8.32933 9.74402H8.36C8.60667 9.74669 9.476 9.75469 9.60133 8.91869C9.66667 8.49202 9.48 8.29735 9.32667 8.20669C9.14471 8.08784 8.95444 7.98224 8.75733 7.89069C8.59467 7.81869 8.472 7.54402 8.76667 7.46402C8.95067 7.44269 9.32667 7.44269 9.55067 7.50402L9.736 6.91336ZM5.06267 6.22002H3.75867L2.792 8.35869L2.63867 6.22002H1.36667L0.684 9.74402H1.47867L1.96667 7.19735L2.18 9.74402H2.93467L4.044 7.25869L3.576 9.74402H4.39867L5.06267 6.22002ZM5.15333 7.53469L5.34533 7.51069C5.58533 7.48002 5.93333 7.43469 6.14133 7.44269L6.22133 7.44402C6.47067 7.44936 6.71333 7.45469 6.63067 7.84936C6.60311 7.85113 6.55867 7.85113 6.49733 7.84936C6.08 7.83602 4.972 7.80269 4.77733 8.86802C4.68533 9.46802 5.204 9.77469 5.612 9.75336C6.01867 9.73336 6.132 9.68269 6.27333 9.58002L6.376 9.74402H7.11867L7.43467 8.15469C7.516 7.75869 7.648 6.80135 6.31467 6.80135L6.18667 6.80536C5.97067 6.81069 5.70667 6.81869 5.276 6.90269L5.15333 7.53469ZM17.5347 6.89336C17.8 6.89336 17.9413 6.91336 18.1453 7.03469L18.6653 6.51602C18.4613 6.29202 18.2267 6.07202 17.576 6.04802C17.0253 6.02669 16.0827 6.42802 15.784 7.52402C15.376 9.01069 16.272 9.74402 17.0973 9.74402C17.5347 9.74402 17.8 9.68269 18.064 9.56002L17.8293 8.84802C17.016 9.12269 16.4347 8.70536 16.568 7.86002C16.6787 7.14536 17.2693 6.89202 17.5347 6.89202M24.804 7.05069C24.6973 6.93869 24.5747 6.81069 24.2947 6.81069H24.2227C23.7853 6.80536 23.1547 6.79869 22.788 8.05202C22.5293 8.93602 23.0533 9.74269 23.6227 9.74269C23.888 9.73202 24.152 9.62002 24.316 9.50802L24.4173 9.74269H25.272L25.9653 6.03602H25.1293L24.916 7.15602C24.8766 7.12266 24.8392 7.08705 24.804 7.04935M18.5933 7.53202L18.7853 7.50802C19.0253 7.47736 19.372 7.43202 19.5813 7.44002L19.6613 7.44136C19.9107 7.44669 20.1533 7.45202 20.0693 7.84669C20.0427 7.84847 19.9982 7.84847 19.936 7.84669C19.52 7.83336 18.412 7.80002 18.216 8.86536C18.1253 9.46536 18.644 9.77202 19.052 9.75069C19.4587 9.73069 19.5707 9.68002 19.7133 9.57735L19.816 9.74135H20.5587L20.8747 8.15202C20.9547 7.75602 21.088 6.79869 19.7547 6.79869L19.6267 6.80269C19.4107 6.80802 19.1467 6.81602 18.716 6.90002L18.5933 7.53202ZM14.3093 6.84936L13.7693 9.74135H14.564L14.808 8.41735C15.028 7.60402 15.376 7.60935 15.576 7.61202H15.612L15.816 6.84936C15.42 6.84936 15.1853 6.99202 15.0627 7.13469L14.992 6.84936H14.3093Z" fill="#2F4D5A"/>
</svg>
