<svg width="17" height="16" viewBox="0 0 17 16" fill="none" xmlns="http://www.w3.org/2000/svg">
<path d="M8.16667 6.99887C7.20456 6.99887 6.3805 6.65587 5.6945 5.96987C5.0085 5.28387 4.66589 4.4602 4.66667 3.49887C4.66744 2.53753 5.01006 1.71309 5.6945 1.02553C6.37894 0.337977 7.203 -0.00385608 8.16667 3.28084e-05C9.13033 0.0039217 9.95439 0.346144 10.6388 1.0267C11.3233 1.70725 11.6659 2.5317 11.6667 3.50003C11.6674 4.46837 11.3248 5.29203 10.6388 5.97103C9.95283 6.65003 9.12878 6.99187 8.16667 6.99887ZM0 15.435V13.5147C0 13.0333 0.14 12.5829 0.42 12.1637C0.700778 11.7437 1.078 11.4178 1.55167 11.186C2.653 10.6579 3.75511 10.262 4.858 9.99837C5.96011 9.73392 7.063 9.6017 8.16667 9.6017C9.27033 9.6017 10.3736 9.73392 11.4765 9.99837C12.5794 10.2628 13.6807 10.6587 14.7805 11.186C15.2549 11.4178 15.6322 11.7437 15.9122 12.1637C16.1929 12.5829 16.3333 13.0333 16.3333 13.5147V15.435H0ZM1.16667 14.2684H15.1667V13.5147C15.1667 13.2565 15.0831 13.0134 14.9158 12.7855C14.7494 12.5584 14.5188 12.3663 14.224 12.2092C13.2642 11.7441 12.2741 11.3879 11.2537 11.1405C10.2332 10.8932 9.20422 10.7691 8.16667 10.7684C7.12911 10.7676 6.10011 10.8913 5.07967 11.1394C4.05922 11.3875 3.06911 11.7437 2.10933 12.208C1.81378 12.3651 1.58317 12.5573 1.4175 12.7844C1.25028 13.0123 1.16667 13.2557 1.16667 13.5147V14.2684ZM8.16667 5.83337C8.80833 5.83337 9.35783 5.6047 9.81517 5.14737C10.2725 4.69003 10.5008 4.14014 10.5 3.4977C10.4992 2.85525 10.2709 2.30614 9.81517 1.85037C9.35939 1.39459 8.80989 1.16592 8.16667 1.16437C7.52345 1.16281 6.97433 1.39148 6.51933 1.85037C6.06433 2.30925 5.83567 2.85837 5.83333 3.4977C5.831 4.13703 6.05967 4.68653 6.51933 5.1462C6.979 5.60587 7.52811 5.83414 8.16667 5.83103" fill="black"/>
</svg>
