<svg width="22" height="19" viewBox="0 0 22 19" fill="none" xmlns="http://www.w3.org/2000/svg">
<path d="M21.0802 0H13.9878C13.3595 0.000464272 12.7414 0.159065 12.1906 0.461185C11.6397 0.763306 11.1737 1.19923 10.8356 1.72877C10.4975 1.19923 10.0315 0.763306 9.48064 0.461185C8.92977 0.159065 8.31171 0.000464272 7.68342 0H0.591033C0.434281 0 0.283949 0.0622693 0.173109 0.173109C0.0622693 0.283949 0 0.434281 0 0.591033V14.7758C0 14.9326 0.0622693 15.0829 0.173109 15.1937C0.283949 15.3046 0.434281 15.3668 0.591033 15.3668H7.68342C8.36268 15.3668 9.01412 15.6367 9.49442 16.117C9.97473 16.5973 10.2446 17.2487 10.2446 17.928C10.2446 18.0847 10.3068 18.2351 10.4177 18.3459C10.5285 18.4568 10.6788 18.519 10.8356 18.519C10.9923 18.519 11.1427 18.4568 11.2535 18.3459C11.3644 18.2351 11.4266 18.0847 11.4266 17.928C11.4266 17.2487 11.6965 16.5973 12.1768 16.117C12.6571 15.6367 13.3085 15.3668 13.9878 15.3668H21.0802C21.2369 15.3668 21.3872 15.3046 21.4981 15.1937C21.6089 15.0829 21.6712 14.9326 21.6712 14.7758V0.591033C21.6712 0.434281 21.6089 0.283949 21.4981 0.173109C21.3872 0.0622693 21.2369 0 21.0802 0ZM7.68342 14.1848H1.18207V1.18207H7.68342C8.36268 1.18207 9.01412 1.4519 9.49442 1.93221C9.97473 2.41251 10.2446 3.06395 10.2446 3.74321V15.2004C9.55178 14.5473 8.63547 14.184 7.68342 14.1848ZM20.4891 14.1848H13.9878C13.0356 14.1844 12.1193 14.5481 11.4266 15.2014V3.74321C11.4266 3.06395 11.6965 2.41251 12.1768 1.93221C12.6571 1.4519 13.3085 1.18207 13.9878 1.18207H20.4891V14.1848Z" fill="#15242A"/>
</svg>
