<svg width="15" height="15" viewBox="0 0 15 15" fill="none" xmlns="http://www.w3.org/2000/svg">
<mask id="path-1-outside-1_300_233" maskUnits="userSpaceOnUse" x="-0.800049" y="-0.800049" width="15" height="15" fill="black">
<rect fill="white" x="-0.800049" y="-0.800049" width="15" height="15"/>
<path d="M13.2641 13.8541L8.04578 8.63579C7.62912 8.99079 7.14995 9.26551 6.60828 9.45995C6.06662 9.6544 5.52217 9.75162 4.97495 9.75162C3.64051 9.75162 2.51106 9.28968 1.58662 8.36579C0.662173 7.4419 0.199951 6.31273 0.199951 4.97829C0.199951 3.64384 0.661618 2.51412 1.58495 1.58912C2.50828 0.66412 3.63717 0.201064 4.97162 0.199953C6.30606 0.198842 7.43606 0.661064 8.36162 1.58662C9.28717 2.51218 9.74995 3.6419 9.74995 4.97579C9.74995 5.55468 9.64745 6.11495 9.44245 6.65662C9.23745 7.19829 8.96801 7.66162 8.63412 8.04662L13.8525 13.2641L13.2641 13.8541ZM4.97578 8.91745C6.08134 8.91745 7.01467 8.5369 7.77578 7.77579C8.5369 7.01468 8.91745 6.08106 8.91745 4.97495C8.91745 3.86884 8.5369 2.93551 7.77578 2.17495C7.01467 1.4144 6.08134 1.03384 4.97578 1.03329C3.87023 1.03273 2.93662 1.41329 2.17495 2.17495C1.41328 2.93662 1.03273 3.86995 1.03328 4.97495C1.03384 6.07995 1.4144 7.01329 2.17495 7.77495C2.93551 8.53662 3.86884 8.91718 4.97495 8.91662"/>
</mask>
<path d="M13.2641 13.8541L8.04578 8.63579C7.62912 8.99079 7.14995 9.26551 6.60828 9.45995C6.06662 9.6544 5.52217 9.75162 4.97495 9.75162C3.64051 9.75162 2.51106 9.28968 1.58662 8.36579C0.662173 7.4419 0.199951 6.31273 0.199951 4.97829C0.199951 3.64384 0.661618 2.51412 1.58495 1.58912C2.50828 0.66412 3.63717 0.201064 4.97162 0.199953C6.30606 0.198842 7.43606 0.661064 8.36162 1.58662C9.28717 2.51218 9.74995 3.6419 9.74995 4.97579C9.74995 5.55468 9.64745 6.11495 9.44245 6.65662C9.23745 7.19829 8.96801 7.66162 8.63412 8.04662L13.8525 13.2641L13.2641 13.8541ZM4.97578 8.91745C6.08134 8.91745 7.01467 8.5369 7.77578 7.77579C8.5369 7.01468 8.91745 6.08106 8.91745 4.97495C8.91745 3.86884 8.5369 2.93551 7.77578 2.17495C7.01467 1.4144 6.08134 1.03384 4.97578 1.03329C3.87023 1.03273 2.93662 1.41329 2.17495 2.17495C1.41328 2.93662 1.03273 3.86995 1.03328 4.97495C1.03384 6.07995 1.4144 7.01329 2.17495 7.77495C2.93551 8.53662 3.86884 8.91718 4.97495 8.91662" fill="#15242A"/>
<path d="M13.2641 13.8541L13.1227 13.9955L13.2643 14.1372L13.4057 13.9953L13.2641 13.8541ZM8.04578 8.63579L8.1872 8.49437L8.05663 8.3638L7.91608 8.48355L8.04578 8.63579ZM4.97495 9.75162V9.55162V9.75162ZM8.63412 8.04662L8.48302 7.91558L8.36096 8.05633L8.49271 8.18805L8.63412 8.04662ZM13.8525 13.2641L13.9941 13.4053L14.1351 13.2639L13.9939 13.1227L13.8525 13.2641ZM13.2641 13.8541L13.4055 13.7127L8.1872 8.49437L8.04578 8.63579L7.90436 8.77721L13.1227 13.9955L13.2641 13.8541ZM8.04578 8.63579L7.91608 8.48355C7.51871 8.82211 7.06084 9.085 6.54071 9.27171L6.60828 9.45995L6.67586 9.64819C7.23906 9.44602 7.73952 9.15947 8.17549 8.78802L8.04578 8.63579ZM6.60828 9.45995L6.54071 9.27171C6.01959 9.45878 5.49797 9.55162 4.97495 9.55162V9.75162V9.95162C5.54638 9.95162 6.11364 9.85001 6.67586 9.64819L6.60828 9.45995ZM4.97495 9.75162V9.55162C3.69228 9.55162 2.61406 9.10986 1.728 8.22432L1.58662 8.36579L1.44524 8.50725C2.40806 9.46949 3.58873 9.95162 4.97495 9.95162V9.75162ZM1.58662 8.36579L1.728 8.22432C0.841961 7.33882 0.399951 6.26092 0.399951 4.97829H0.199951H-4.88311e-05C-4.88311e-05 6.36454 0.482386 7.54498 1.44524 8.50725L1.58662 8.36579ZM0.199951 4.97829H0.399951C0.399951 3.69557 0.841468 2.61704 1.7265 1.73041L1.58495 1.58912L1.4434 1.44783C0.481767 2.4112 -4.88311e-05 3.59211 -4.88311e-05 4.97829H0.199951ZM1.58495 1.58912L1.7265 1.73041C2.61148 0.843834 3.68914 0.401021 4.97178 0.399953L4.97162 0.199953L4.97145 -4.67598e-05C3.58521 0.00110747 2.40509 0.484406 1.4434 1.44783L1.58495 1.58912ZM4.97162 0.199953L4.97178 0.399953C6.25429 0.398885 7.333 0.840847 8.2202 1.72804L8.36162 1.58662L8.50304 1.4452C7.53912 0.481282 6.35784 -0.00120112 4.97145 -4.67598e-05L4.97162 0.199953ZM8.36162 1.58662L8.2202 1.72804C9.10745 2.61529 9.54995 3.69381 9.54995 4.97579H9.74995H9.94995C9.94995 3.58999 9.4669 2.40906 8.50304 1.4452L8.36162 1.58662ZM9.74995 4.97579H9.54995C9.54995 5.53048 9.45184 6.06677 9.2554 6.58583L9.44245 6.65662L9.6295 6.72741C9.84306 6.16314 9.94995 5.57887 9.94995 4.97579H9.74995ZM9.44245 6.65662L9.2554 6.58583C9.05762 7.10843 8.79952 7.55064 8.48302 7.91558L8.63412 8.04662L8.78521 8.17766C9.1365 7.7726 9.41729 7.28815 9.6295 6.72741L9.44245 6.65662ZM8.63412 8.04662L8.49271 8.18805L13.711 13.4056L13.8525 13.2641L13.9939 13.1227L8.77553 7.90519L8.63412 8.04662ZM13.8525 13.2641L13.7108 13.1229L13.1225 13.7129L13.2641 13.8541L13.4057 13.9953L13.9941 13.4053L13.8525 13.2641ZM4.97578 8.91745V9.11745C6.13277 9.11745 7.11746 8.71695 7.91721 7.91721L7.77578 7.77579L7.63436 7.63437C6.91188 8.35685 6.02991 8.71745 4.97578 8.71745V8.91745ZM7.77578 7.77579L7.91721 7.91721C8.71697 7.11745 9.11745 6.13247 9.11745 4.97495H8.91745H8.71745C8.71745 6.02966 8.35682 6.91191 7.63436 7.63437L7.77578 7.77579ZM8.91745 4.97495H9.11745C9.11745 3.81744 8.71696 2.83271 7.91715 2.03348L7.77578 2.17495L7.63441 2.31643C8.35683 3.03831 8.71745 3.92025 8.71745 4.97495H8.91745ZM7.77578 2.17495L7.91715 2.03348C7.11743 1.23434 6.13279 0.833868 4.97588 0.833286L4.97578 1.03329L4.97568 1.23329C6.02989 1.23382 6.91192 1.59446 7.63441 2.31643L7.77578 2.17495ZM4.97578 1.03329L4.97588 0.833286C3.81882 0.832705 2.83382 1.23324 2.03353 2.03353L2.17495 2.17495L2.31637 2.31637C3.03941 1.59333 3.92164 1.23276 4.97568 1.23329L4.97578 1.03329ZM2.17495 2.17495L2.03353 2.03353C1.23326 2.8338 0.832703 3.81851 0.833284 4.97505L1.03328 4.97495L1.23328 4.97485C1.23275 3.92139 1.59331 3.03944 2.31637 2.31637L2.17495 2.17495ZM1.03328 4.97495L0.833284 4.97505C0.833866 6.13143 1.23435 7.11603 2.03343 7.91627L2.17495 7.77495L2.31648 7.63364C1.59444 6.91054 1.23381 6.02847 1.23328 4.97485L1.03328 4.97495ZM2.17495 7.77495L2.03343 7.91627C2.83267 8.71668 3.81746 9.1172 4.97505 9.11662L4.97495 8.91662L4.97485 8.71662C3.92023 8.71715 3.03835 8.35656 2.31648 7.63364L2.17495 7.77495Z" fill="#15242A" mask="url(#path-1-outside-1_300_233)"/>
</svg>
