<svg width="19" height="19" viewBox="0 0 19 19" fill="none" xmlns="http://www.w3.org/2000/svg">
<path d="M9.125 1.83887C7.21559 1.90215 5.39728 2.6867 4.04199 4.04199C2.62766 5.45633 1.83301 7.37483 1.83301 9.375C1.83301 11.3752 2.62766 13.2937 4.04199 14.708C5.45633 16.1223 7.37483 16.917 9.375 16.917C11.3752 16.917 13.2937 16.1223 14.708 14.708C16.0633 13.3527 16.8469 11.5344 16.9102 9.625H18.4941C18.3616 14.5488 14.3308 18.5 9.375 18.5C4.33557 18.5 0.25 14.4144 0.25 9.375C0.25 4.41919 4.20117 0.388352 9.125 0.255859V1.83887ZM9.95801 5.45801V9.13379L12.9434 12.1191L12.1191 12.9434L8.79199 9.61621V5.45801H9.95801ZM17.6924 5.61816C17.9375 6.16065 18.1282 6.72578 18.2627 7.30566L16.7119 7.62012C16.6039 7.16588 16.4518 6.72939 16.2656 6.31152L17.6924 5.61816ZM15.0479 2.22852C15.5928 2.66194 16.0866 3.1561 16.5195 3.70117L15.2539 4.65234C14.9106 4.22595 14.5225 3.83788 14.0957 3.49512L15.0479 2.22852ZM11.4424 0.486328C12.0223 0.620813 12.5874 0.81252 13.1299 1.05762L12.4365 2.48535C12.014 2.29724 11.5758 2.14826 11.126 2.04102L11.4424 0.486328Z" fill="#15242A" stroke="#F8F9FA" stroke-width="0.5"/>
</svg>
