<svg width="32" height="11" viewBox="0 0 32 11" fill="none" xmlns="http://www.w3.org/2000/svg">
<path d="M29.6293 10.1973L29.3293 8.69733H25.9773L25.444 10.1867L22.7573 10.192C24.4844 6.04178 25.7662 2.96756 26.6027 0.969334C26.8213 0.446667 27.2093 0.180001 27.7813 0.184001C28.2187 0.187556 28.9324 0.188 29.9227 0.185333L32 10.1933L29.6293 10.1973ZM26.7307 6.64267H28.892L28.0853 2.88267L26.7307 6.64267ZM9.416 0.182667L12.1173 0.185333L7.94133 10.1987L5.20667 10.196C4.519 7.55109 3.83989 4.90397 3.16933 2.25467C3.036 1.72667 2.772 1.35733 2.264 1.18267C1.80978 1.02711 1.05511 0.786666 0 0.461333V0.185333H4.316C5.06267 0.185333 5.49867 0.546667 5.63867 1.288C5.78 2.03111 6.13556 3.92178 6.70533 6.96L9.416 0.182667ZM15.8293 0.185333L13.6947 10.1973L11.1227 10.1933L13.2533 0.182667L15.8293 0.185333ZM21.0427 0C21.812 0 22.7813 0.24 23.3387 0.461333L22.888 2.536C22.384 2.33333 21.5547 2.06 20.8573 2.06933C19.844 2.08667 19.2173 2.512 19.2173 2.92C19.2173 3.584 20.3053 3.91867 21.4253 4.644C22.7027 5.47067 22.872 6.21333 22.856 7.02133C22.8387 8.69467 21.4253 10.3467 18.444 10.3467C17.084 10.3267 16.5933 10.2133 15.484 9.81867L15.9533 7.65333C17.0827 8.12533 17.5613 8.276 18.5267 8.276C19.4107 8.276 20.1693 7.91867 20.176 7.296C20.1813 6.85333 19.9093 6.63333 18.9173 6.08667C17.9253 5.54 16.5333 4.78133 16.552 3.25733C16.5747 1.308 18.4213 0 21.0427 0Z" fill="#2F4D5A"/>
</svg>
