<svg width="24" height="8" viewBox="0 0 24 8" fill="none" xmlns="http://www.w3.org/2000/svg">
<path d="M22.222 7.648L21.997 6.523H19.483L19.083 7.64L17.068 7.644C18.3633 4.53133 19.3247 2.22567 19.952 0.727C20.116 0.335 20.407 0.135 20.836 0.138C21.164 0.140667 21.6993 0.141 22.442 0.139L24 7.645L22.222 7.648ZM20.048 4.982H21.669L21.064 2.162L20.048 4.982ZM7.062 0.137L9.088 0.139L5.956 7.649L3.905 7.647C3.38925 5.66332 2.87991 3.67797 2.377 1.691C2.277 1.295 2.079 1.018 1.698 0.887C1.35733 0.770333 0.791333 0.59 0 0.346V0.139H3.237C3.797 0.139 4.124 0.410001 4.229 0.966001C4.335 1.52333 4.60167 2.94133 5.029 5.22L7.062 0.137ZM11.872 0.139L10.271 7.648L8.342 7.645L9.94 0.137L11.872 0.139ZM15.782 0C16.359 0 17.086 0.18 17.504 0.346L17.166 1.902C16.788 1.75 16.166 1.545 15.643 1.552C14.883 1.565 14.413 1.884 14.413 2.19C14.413 2.688 15.229 2.939 16.069 3.483C17.027 4.103 17.154 4.66 17.142 5.266C17.129 6.521 16.069 7.76 13.833 7.76C12.813 7.745 12.445 7.66 11.613 7.364L11.965 5.74C12.812 6.094 13.171 6.207 13.895 6.207C14.558 6.207 15.127 5.939 15.132 5.472C15.136 5.14 14.932 4.975 14.188 4.565C13.444 4.155 12.4 3.586 12.414 2.443C12.431 0.981 13.816 0 15.782 0Z" fill="black"/>
</svg>
